# xmcd
#
# Track frame offsets:
#	150
#	15555
#	36050
#	51455
#	68741
#
# Disc length: 1216 seconds
#
# Revision: 2
# Processed by: cddbd v1.5.1PL0 Copyright (c) Steve Scherf et al.
# Submitted via: audiograbber 1.83.01
#
DISCID=3b04be05
DTITLE=Mia Aegerter - Hie u Jetzt
DYEAR=2003
DGENRE=Pop
TTITLE0=Hie u Jetzt (Radio Edit)
TTITLE1=Hie u Jetzt (Xtended)
TTITLE2=Right Here Right Now
TTITLE3=I Like It
TTITLE4=I Like It (Xtended)
EXTD=
EXTT0=
EXTT1=
EXTT2=
EXTT3=
EXTT4=
PLAYORDER=
